<svg width="26" height="27" viewBox="0 0 26 27" fill="none" xmlns="http://www.w3.org/2000/svg">
    <path d="M12.6225 0C8.55128 0 4.92149 1.86551 2.48528 4.79704C3.61345 4.74707 5.13404 4.6971 7.16149 4.6971C11.1346 4.6971 13.1621 4.84701 14.1758 4.98026C14.7644 5.06354 15.2876 5.42998 15.582 5.96299L17.266 9.11104H17.7402C17.7566 8.82788 17.9855 8.59469 18.2634 8.59469H18.2798C18.9828 8.59469 19.6205 9.02776 19.8658 9.71067C19.9312 9.89389 19.8004 10.0771 19.6205 10.0771H18.3125C19.6859 10.9099 20.6179 12.4423 20.6179 14.1912V17.5891C20.6179 18.855 19.6042 19.8877 18.3615 19.8877H16.3504C15.7618 19.8877 15.2059 19.7045 14.7154 19.4047C14.4865 19.7878 14.0777 20.0376 13.6199 20.0376H1.03009C3.28645 24.1851 7.63565 27 12.6225 27C19.9475 27 25.8827 20.9537 25.8827 13.4917C25.8827 6.04627 19.9475 0 12.6225 0ZM20.2418 21.1536C20.2418 21.7866 19.735 22.3029 19.1136 22.3029H17.3314C16.7101 22.3029 16.2033 21.7866 16.2033 21.1536V20.4874H20.2418V21.1536Z" fill="#000"/>
    <path d="M16.4976 8.99454L15.0424 6.27955C14.8462 5.91311 14.5028 5.67992 14.0941 5.6133C13.1294 5.48005 11.151 5.33014 7.16148 5.33014C4.79067 5.33014 3.12293 5.38011 1.9784 5.44673C1.12818 6.61268 0.457811 7.94519 0 9.36098H16.2687C16.4649 9.37764 16.5957 9.16111 16.4976 8.99454Z" fill="#000"/>
    <path d="M15.8272 17.256C15.5492 17.256 15.353 17.5225 15.4348 17.789C15.6473 18.4386 16.2686 18.905 16.9717 18.905H18.6394C18.9664 18.905 19.2281 18.6385 19.2281 18.3054V17.839C19.2281 17.5059 18.9664 17.2394 18.6394 17.2394H15.8272V17.256Z" fill="#000"/>
    <path d="M2.7142 17.0562C2.50165 17.0562 2.37084 17.2727 2.46895 17.4726L2.53435 17.6059C2.6815 17.9057 2.99216 18.0889 3.31917 18.0889H11.0039C11.3309 18.0889 11.6415 17.9057 11.7887 17.6059L11.8541 17.4726C11.9522 17.2894 11.8214 17.0562 11.6088 17.0562H2.7142Z" fill="#000"/>
    <path d="M17.6585 11.7261C16.9554 11.7261 16.3995 12.309 16.3995 13.0086V14.9408C16.3995 15.1406 16.5793 15.2905 16.7755 15.2406L18.6885 14.7242C18.8357 14.6909 18.9338 14.5577 18.9338 14.4078V13.0086C18.9174 12.2924 18.3615 11.7261 17.6585 11.7261Z" fill="#000"/>
</svg>
